<svg xmlns="http://www.w3.org/2000/svg" xmlns:xlink="http://www.w3.org/1999/xlink" width="500" zoomAndPan="magnify" viewBox="0 0 375 374.999991" height="500" preserveAspectRatio="xMidYMid meet" version="1.0"><defs><clipPath id="9f37e4cb27"><path d="M 35.230469 13.265625 L 339.730469 13.265625 L 339.730469 362 L 35.230469 362 Z M 35.230469 13.265625 " clip-rule="nonzero"/></clipPath></defs><g clip-path="url(#9f37e4cb27)"><path fill="#0099ff" d="M 182.019531 14.859375 L 111.402344 55.632812 L 40.785156 96.402344 C 40.601562 96.503906 40.460938 96.652344 40.285156 96.765625 C 39.953125 96.976562 39.632812 97.199219 39.324219 97.449219 C 39.046875 97.683594 38.789062 97.929688 38.539062 98.179688 C 38.296875 98.421875 38.0625 98.667969 37.839844 98.933594 C 37.578125 99.253906 37.34375 99.585938 37.121094 99.929688 C 37.011719 100.097656 36.875 100.234375 36.777344 100.410156 C 36.71875 100.511719 36.691406 100.621094 36.636719 100.722656 C 36.445312 101.082031 36.289062 101.453125 36.136719 101.828125 C 36.015625 102.132812 35.886719 102.4375 35.792969 102.753906 C 35.691406 103.09375 35.625 103.445312 35.554688 103.796875 C 35.488281 104.144531 35.417969 104.488281 35.382812 104.835938 C 35.347656 105.183594 35.355469 105.53125 35.355469 105.886719 C 35.355469 106.234375 35.347656 106.582031 35.382812 106.929688 C 35.417969 107.28125 35.488281 107.625 35.554688 107.972656 C 35.625 108.328125 35.691406 108.675781 35.792969 109.019531 C 35.886719 109.328125 36.015625 109.636719 36.140625 109.949219 C 36.289062 110.316406 36.445312 110.683594 36.636719 111.042969 C 36.691406 111.144531 36.71875 111.253906 36.777344 111.355469 C 36.882812 111.535156 37.023438 111.675781 37.132812 111.847656 C 37.351562 112.183594 37.578125 112.507812 37.832031 112.824219 C 38.058594 113.097656 38.300781 113.347656 38.546875 113.597656 C 38.796875 113.84375 39.046875 114.085938 39.324219 114.316406 C 39.632812 114.570312 39.953125 114.789062 40.292969 115.007812 C 40.460938 115.121094 40.605469 115.261719 40.785156 115.363281 L 105.929688 152.972656 L 105.929688 228.195312 C 105.929688 228.3125 105.960938 228.421875 105.960938 228.542969 C 105.972656 228.949219 106.027344 229.347656 106.082031 229.75 C 106.132812 230.074219 106.175781 230.394531 106.246094 230.710938 C 106.328125 231.066406 106.453125 231.40625 106.570312 231.753906 C 106.6875 232.082031 106.789062 232.410156 106.929688 232.71875 C 107.078125 233.050781 107.261719 233.355469 107.449219 233.671875 C 107.617188 233.964844 107.777344 234.257812 107.976562 234.535156 C 108.1875 234.828125 108.433594 235.101562 108.671875 235.371094 C 108.898438 235.632812 109.121094 235.894531 109.371094 236.132812 C 109.617188 236.367188 109.890625 236.574219 110.15625 236.78125 C 110.464844 237.027344 110.777344 237.257812 111.113281 237.472656 C 111.214844 237.53125 111.296875 237.617188 111.402344 237.679688 L 182.019531 278.453125 C 185.410156 280.402344 189.582031 280.402344 192.96875 278.453125 L 263.589844 237.679688 C 267.101562 235.65625 269.066406 231.96875 269.066406 228.183594 C 269.066406 226.328125 268.59375 224.445312 267.589844 222.722656 C 264.566406 217.484375 257.871094 215.691406 252.636719 218.714844 L 187.492188 256.320312 L 127.832031 221.875 L 127.832031 152.976562 L 187.492188 118.53125 L 252.636719 156.136719 C 257.871094 159.15625 264.566406 157.367188 267.589844 152.128906 C 268.59375 150.40625 269.066406 148.523438 269.066406 146.664062 C 269.066406 142.878906 267.101562 139.195312 263.589844 137.167969 L 192.96875 96.402344 C 189.582031 94.449219 185.410156 94.449219 182.019531 96.402344 L 116.878906 134.007812 L 68.160156 105.886719 L 122.355469 74.597656 L 187.492188 36.984375 L 252.636719 74.597656 L 317.777344 112.207031 L 317.777344 262.648438 L 252.636719 300.253906 L 187.492188 337.867188 L 122.355469 300.253906 L 57.210938 262.648438 L 57.210938 187.425781 C 57.210938 181.378906 52.304688 176.472656 46.261719 176.472656 C 40.214844 176.472656 35.308594 181.378906 35.308594 187.425781 L 35.308594 268.964844 C 35.308594 269.085938 35.34375 269.195312 35.347656 269.308594 C 35.359375 269.722656 35.40625 270.121094 35.46875 270.523438 C 35.515625 270.847656 35.554688 271.167969 35.632812 271.480469 C 35.710938 271.839844 35.832031 272.179688 35.953125 272.527344 C 36.066406 272.855469 36.175781 273.179688 36.3125 273.492188 C 36.464844 273.816406 36.648438 274.128906 36.828125 274.441406 C 37 274.738281 37.164062 275.03125 37.359375 275.308594 C 37.566406 275.601562 37.8125 275.867188 38.050781 276.144531 C 38.28125 276.40625 38.503906 276.667969 38.757812 276.90625 C 39.003906 277.140625 39.269531 277.339844 39.542969 277.554688 C 39.851562 277.796875 40.160156 278.03125 40.5 278.246094 C 40.597656 278.304688 40.683594 278.390625 40.785156 278.453125 L 111.402344 319.21875 L 182.019531 359.992188 C 185.410156 361.949219 189.582031 361.949219 192.96875 359.992188 L 263.589844 319.21875 L 334.203125 278.453125 C 334.351562 278.371094 334.46875 278.265625 334.605469 278.179688 C 334.761719 278.082031 334.910156 277.984375 335.058594 277.878906 C 335.539062 277.539062 335.996094 277.167969 336.410156 276.761719 C 336.4375 276.738281 336.460938 276.722656 336.488281 276.695312 C 336.9375 276.242188 337.332031 275.75 337.695312 275.230469 C 337.777344 275.113281 337.851562 274.992188 337.929688 274.871094 C 338.226562 274.40625 338.492188 273.921875 338.71875 273.414062 C 338.761719 273.328125 338.804688 273.253906 338.84375 273.164062 C 339.082031 272.589844 339.253906 271.988281 339.398438 271.382812 C 339.429688 271.230469 339.457031 271.078125 339.484375 270.925781 C 339.605469 270.277344 339.683594 269.617188 339.683594 268.957031 C 339.683594 268.945312 339.679688 268.929688 339.679688 268.910156 L 339.679688 105.941406 C 339.679688 105.921875 339.683594 105.90625 339.683594 105.894531 C 339.683594 105.234375 339.605469 104.574219 339.484375 103.925781 C 339.457031 103.773438 339.429688 103.621094 339.398438 103.472656 C 339.253906 102.867188 339.082031 102.269531 338.84375 101.6875 C 338.804688 101.601562 338.753906 101.523438 338.71875 101.4375 C 338.492188 100.929688 338.226562 100.445312 337.929688 99.980469 C 337.851562 99.859375 337.777344 99.738281 337.695312 99.621094 C 337.332031 99.105469 336.9375 98.609375 336.488281 98.15625 C 336.460938 98.128906 336.4375 98.113281 336.410156 98.09375 C 335.996094 97.683594 335.539062 97.3125 335.058594 96.972656 C 334.910156 96.867188 334.761719 96.769531 334.605469 96.671875 C 334.46875 96.585938 334.351562 96.480469 334.203125 96.402344 L 263.589844 55.632812 L 192.96875 14.859375 C 189.582031 12.902344 185.410156 12.902344 182.019531 14.859375 " fill-opacity="1" fill-rule="nonzero"/></g></svg>