<?xml version="1.0" standalone="no"?><svg xmlns="http://www.w3.org/2000/svg" viewBox="0 0 1440 320"><path fill="#5E10BC" fill-opacity="1" d="M0,224L40,240C80,256,160,288,240,282.7C320,277,400,235,480,229.3C560,224,640,256,720,256C800,256,880,224,960,208C1040,192,1120,192,1200,202.7C1280,213,1360,235,1400,245.3L1440,256L1440,320L1400,320C1360,320,1280,320,1200,320C1120,320,1040,320,960,320C880,320,800,320,720,320C640,320,560,320,480,320C400,320,320,320,240,320C160,320,80,320,40,320L0,320Z"></path></svg>