<?xml version="1.0" encoding="iso-8859-1"?>
<!-- Uploaded to: SVG Repo, www.svgrepo.com, Generator: SVG Repo Mixer Tools -->
<!DOCTYPE svg PUBLIC "-//W3C//DTD SVG 1.1//EN" "http://www.w3.org/Graphics/SVG/1.1/DTD/svg11.dtd">
<svg fill="#000000" version="1.1" id="Layer_1" xmlns="http://www.w3.org/2000/svg" xmlns:xlink="http://www.w3.org/1999/xlink" 
	 width="800px" height="800px" viewBox="0 0 612 612" xml:space="preserve">
<g>
	<g>
		<g>
			<path d="M509.279,84.295H454.7C426.357,34.036,372.486,0,310.788,0S195.223,34.036,166.881,84.295h-64.16v51.333h45.635
				c-1.735,9.579-2.692,19.426-2.692,29.496c0,2.957,0.86,21.837,0.86,21.837h-43.804v51.333h43.12V612h51.333V285.624
				c30.8,27.724,69.7,44.629,113.271,44.629c64.786,0,121.292-37.521,148.32-91.958h50.514v-51.333h-34.852
				c0.949-7.149,1.489-14.429,1.489-21.837c0-10.07-0.957-19.917-2.692-29.496h36.055V84.295L509.279,84.295z M424.584,165.125
				c0,7.47-0.744,14.765-2.126,21.837h-223.36c-0.992-5.125-1.659-10.371-1.94-15.726c-0.104-1.996-0.158-4.051-0.158-6.111
				c0-10.201,1.37-20.083,3.899-29.496h219.786C423.214,145.041,424.584,154.923,424.584,165.125z M310.788,278.92
				c-34.9,0-66.249-15.741-87.167-40.625H397.85C376.959,263.111,345.69,278.92,310.788,278.92z M230.789,84.295
				c20.57-20.361,48.84-32.962,80-32.962c31.163,0,59.432,12.602,80.004,32.962H230.789z"/>
		</g>
	</g>
</g>
</svg>